<?xml version="1.0" encoding="utf-8"?>
<!-- Generator: Adobe Illustrator 19.2.0, SVG Export Plug-In . SVG Version: 6.00 Build 0)  -->
<svg version="1.1" id="Layer_1" xmlns="http://www.w3.org/2000/svg" xmlns:xlink="http://www.w3.org/1999/xlink" x="0px" y="0px"
	 viewBox="0 0 62 620" style="enable-background:new 0 0 62 620;" xml:space="preserve">
<style type="text/css">
	.st0{fill:#0287E1;}
</style>
<path class="st0" d="M51.7,98.9c4-0.7,6.2-0.7,6.2-0.7c1.6,0,2.8-1.3,2.8-2.9v-4.2c0-1.5-1.3-2.9-2.8-3c0,0-3.6-0.3-6.1-0.9
	c-0.2-0.1-0.2-0.1-0.2-0.1c-0.2-0.1-0.5-0.6-0.8-1.2c-0.2-0.5-0.7-2.5-0.6-3.2c0,0,0,0,0.5-0.7c2.4-3.2,3.8-4.7,3.8-4.7
	c1.1-1.1,1.1-2.9,0-4l-3-3c-1.1-1.1-2.9-1.1-4.1,0c0,0-1.7,1.6-5,3.4c-0.8,0.4-0.8,0.4-0.8,0.4c-0.9,0-2.1-0.1-2.7-0.4
	s-2.1-0.9-2.2-1.1c0,0,0,0,0-0.2C36,68.8,36,65.8,36,65.8c0-1.5-1.3-2.8-2.9-2.8h-4.3c-1.5,0-2.8,1.3-2.9,2.8c0,0-0.1,3.3-1.1,6.8
	c-0.1,0.2-0.1,0.2-0.1,0.2c-0.1,0.2-0.5,0.5-0.9,0.7c-0.4,0.1-2.3,0.5-3.3,0.5c0,0,0,0-0.9-0.5c-3.3-1.8-5-3.4-5-3.4
	c-1.1-1.1-3-1-4.1,0l-3,3c-1.1,1.1-1.1,2.9,0,4c0,0,1.4,1.5,3.8,4.7c0.4,0.6,0.4,0.6,0.4,0.6c0.2,0.6,0.1,1.6-0.2,2.2
	c-0.3,0.6-1.1,2.3-1.4,2.5c0,0,0,0-0.3,0.1c-3.6,1-6,1.1-6,1.1c-1.6,0-2.8,1.3-2.8,2.9v4.2c0,1.5,1.3,2.8,2.8,2.9c0,0,2.1,0,6.1,0.7
	c0.2,0,0.2,0,0.2,0c0.2,0.1,0.5,0.6,0.8,1.2c0.2,0.6,0.8,2.7,0.7,3.5c0,0,0,0-0.5,0.7c-2.4,3.2-3.8,4.7-3.8,4.7
	c-1.1,1.1-1.1,2.9,0,4l3,3c1.1,1.1,2.9,1.1,4.1,0c0,0,1.7-1.6,5-3.4c0.9-0.5,0.9-0.5,0.9-0.5c1,0,2.2,0.1,2.6,0.3
	c0.4,0.2,1.6,0.8,1.8,1.1c0,0,0,0,0.1,0.3c1,3.6,1.1,5.9,1.1,5.9c0,1.5,1.3,2.8,2.9,2.8H33c1.5,0,2.8-1.3,2.9-2.8c0,0,0-2,0.7-6
	c0-0.2,0-0.2,0-0.2c0.1-0.2,0.6-0.6,1.1-0.7c0.6-0.2,2.8-0.7,3.8-0.7c0,0,0,0,0.8,0.4c3.3,1.8,5,3.4,5,3.4c1.1,1.1,3,1,4.1,0l3-3
	c1.1-1.1,1.1-2.9,0-4c0,0-1.4-1.5-3.8-4.7c-0.5-0.7-0.5-0.7-0.5-0.7c-0.1-0.7-0.1-1.8,0.2-2.4c0.3-0.6,0.9-2.2,1.1-2.3
	C51.6,99,51.6,99,51.7,98.9z"/>
<path class="st0" d="M47.7,36.2c3.3-0.5,4.5-0.6,4.5-0.6c1.6,0,2.8-1.3,2.8-2.9v-2.3c0-1.5-1.3-2.9-2.8-3c0,0-2.4-0.2-4.5-0.7
	c-0.2,0-0.2,0-0.2,0c-0.2-0.1-0.4-0.5-0.6-1s-0.6-2-0.5-2.6c0,0,0,0,0.4-0.5c1.9-2.6,2.7-3.5,2.7-3.5c1.1-1.1,1.1-2.9,0-4l-1.7-1.7
	c-1.1-1.1-2.9-1.1-4.1,0c0,0-1,0.9-3.7,2.4c-0.6,0.3-0.6,0.3-0.6,0.3c-0.7,0-1.7-0.1-2.2-0.3c-0.5-0.2-1.7-0.7-1.8-0.8
	c0,0,0,0,0-0.1c-0.5-3.2-0.6-5.1-0.6-5.1C34.9,8.3,33.6,7,32,7h-2.5c-1.5,0-2.8,1.3-2.9,2.8c0,0,0,2.1-0.9,5
	C25.7,15,25.7,15,25.7,15c-0.1,0.2-0.4,0.4-0.8,0.5c-0.3,0.1-1.8,0.4-2.7,0.4c0,0,0,0-0.7-0.4c-2.7-1.5-3.7-2.4-3.7-2.4
	c-1.1-1.1-3-1-4.1,0l-1.7,1.7c-1.1,1.1-1.1,2.9,0,4c0,0,0.8,0.8,2.7,3.5c0.4,0.5,0.4,0.5,0.4,0.5c0.1,0.5,0.1,1.3-0.2,1.8
	c-0.2,0.5-0.9,1.9-1.1,2c0,0,0,0-0.2,0.1c-3,0.8-4.4,0.9-4.4,0.9c-1.6,0-2.8,1.3-2.8,2.9v2.3c0,1.5,1.3,2.8,2.8,2.9
	c0,0,1.2,0,4.4,0.6c0.2,0,0.2,0,0.2,0c0.2,0.1,0.4,0.5,0.6,1c0.2,0.5,0.6,2.2,0.5,2.8c0,0,0,0-0.4,0.6c-1.9,2.6-2.7,3.5-2.7,3.5
	c-1.1,1.1-1.1,2.9,0,4l1.7,1.7c1.1,1.1,2.9,1.1,4.1,0c0,0,1-0.9,3.7-2.4c0.7-0.4,0.7-0.4,0.7-0.4c0.8,0,1.8,0.1,2.1,0.2
	c0.3,0.1,1.3,0.7,1.5,0.9c0,0,0,0,0.1,0.3c0.9,2.9,0.9,4.3,0.9,4.3c0,1.5,1.3,2.8,2.9,2.8H32c1.5,0,2.8-1.3,2.9-2.8
	c0,0,0-1.1,0.6-4.3c0-0.2,0-0.2,0-0.2c0.1-0.2,0.5-0.4,0.9-0.6c0.4-0.1,2.2-0.6,3-0.6c0,0,0,0,0.7,0.4c2.7,1.5,3.7,2.4,3.7,2.4
	c1.1,1.1,3,1,4.1,0l1.7-1.7c1.1-1.1,1.1-2.9,0-4c0,0-0.8-0.8-2.7-3.5C46.5,40,46.5,40,46.5,40c-0.1-0.6,0-1.5,0.2-1.9
	c0.2-0.5,0.8-1.8,0.9-1.8C47.5,36.3,47.5,36.3,47.7,36.2z"/>
<path class="st0" d="M12.1,163.9l5.9-0.7c0.3,0.5,0.7,1,1.1,1.5l-2.5,5.2c0.8,0.7,1.6,1.3,2.5,1.9l4.7-3.5c0.6,0.3,1.2,0.6,1.8,0.7
	l0.6,5.7c0.5,0.1,1,0.2,1.6,0.3c0.5,0.1,1.1,0.1,1.6,0.2l2.3-5.3c0.6,0,1.3-0.1,1.9-0.2l3.5,4.7c1-0.3,2-0.7,3-1.1l-0.8-5.7
	c0.5-0.3,1-0.7,1.5-1.1l5.4,2.4c0.7-0.8,1.4-1.6,2-2.4l-3.6-4.5c0.3-0.5,0.6-1.1,0.8-1.7l5.9-0.6c0.1-0.5,0.2-1,0.3-1.5
	c0.1-0.5,0.1-1,0.2-1.5l-5.5-2.2c0-0.6-0.1-1.2-0.2-1.8l4.8-3.3c-0.3-1-0.7-1.9-1.2-2.9l-5.9,0.7c-0.3-0.5-0.7-1-1.1-1.5l2.5-5.2
	c-0.8-0.7-1.6-1.3-2.5-1.9l-4.7,3.5c-0.6-0.3-1.2-0.5-1.8-0.8l-0.6-5.7c-0.5-0.1-1-0.2-1.6-0.3c-0.5-0.1-1.1-0.1-1.6-0.2l-2.3,5.3
	c-0.6,0-1.3,0.1-1.9,0.2l-3.5-4.7c-1,0.3-2,0.7-3,1.1l0.8,5.7c-0.5,0.3-1,0.7-1.5,1.1l-5.4-2.4c-0.7,0.8-1.4,1.6-2,2.4l3.6,4.6
	c-0.3,0.5-0.6,1.1-0.8,1.7l-5.9,0.6c-0.1,0.5-0.2,1-0.3,1.5c-0.1,0.5-0.1,1-0.2,1.5l5.5,2.2c0,0.6,0.1,1.2,0.2,1.8l-4.8,3.3
	C11.2,162,11.6,163,12.1,163.9z"/>
<path class="st0" d="M29,227.1c1,0.2,2.1,0.2,3.1,0l2.9,2.8c0.7-0.3,1.4-0.6,2-0.9l-0.2-4.1c0.8-0.7,1.4-1.5,2-2.5l4-0.6
	c0.2-0.7,0.4-1.4,0.5-2.2l-3.3-2.4c0-0.5-0.1-1.1-0.2-1.6c-0.1-0.5-0.3-1-0.5-1.5l2.1-3.5c-0.4-0.6-0.9-1.2-1.4-1.8l-3.9,1.2
	c-0.8-0.6-1.8-1.1-2.8-1.4l-1.4-3.9c-0.7-0.1-1.4-0.1-2.2,0l-1.5,3.8c-1,0.3-2,0.7-2.8,1.3l-3.8-1.3c-0.5,0.5-1,1.1-1.4,1.7l2,3.6
	c-0.4,1-0.7,2-0.7,3.1l-3.4,2.3c0.1,0.4,0.1,0.8,0.2,1.2c0.1,0.4,0.2,0.7,0.3,1l4,0.7c0.5,1,1.1,1.8,1.9,2.5l-0.3,4.1
	c0.6,0.4,1.3,0.7,2,1L29,227.1z"/>
<path class="st0" d="M17.3,275.3c-0.5,1.6-0.8,3.3-0.8,5l-5.2,4c0.2,1.2,0.5,2.3,1,3.4l6.5,0.6c0.9,1.4,2.1,2.7,3.4,3.7l-0.1,6.6
	c1.1,0.5,2.1,1,3.3,1.3l4.5-4.8c0.9,0.1,1.7,0.1,2.6,0.1c0.9,0,1.6-0.2,2.4-0.4l5,4.1c1.1-0.5,2.1-1.1,3.1-1.8l-0.9-6.5
	c1.2-1.2,2.2-2.6,2.9-4.1l6.4-1.4c0.3-1.1,0.5-2.3,0.6-3.5l-5.6-3.4c-0.2-1.7-0.7-3.4-1.4-4.9l2.9-5.9c-0.7-0.9-1.5-1.8-2.4-2.6
	l-6.1,2.3c-1.4-0.9-3-1.5-4.7-1.9l-2.7-5.9c-0.6,0-1.2,0-1.9,0c-0.6,0-1.1,0.1-1.7,0.2l-2,6.3c-1.6,0.6-3.1,1.4-4.4,2.5l-6.3-1.5
	c-0.7,0.9-1.4,1.9-2,2.9L17.3,275.3z"/>
<path class="st0" d="M22.6,312l-0.2,8.6c-0.8,0.4-1.6,0.8-2.4,1.3l-7.1-4.7c-1.2,1-2.3,2-3.4,3.2l4.1,7.5c-0.6,0.7-1.1,1.5-1.5,2.3
	l-8.5-0.4c-0.3,0.7-0.6,1.4-0.8,2.2c-0.2,0.7-0.4,1.5-0.6,2.2l7.2,4.4c-0.1,0.9-0.1,1.9-0.1,2.8l-7.6,3.9c0.2,1.5,0.6,3,1,4.5
	l8.5,0.1c0.4,0.8,0.8,1.6,1.3,2.4L8,359.6c0.9,1.2,2,2.3,3.1,3.4l7.4-4.1c0.7,0.5,1.5,1,2.3,1.5l-0.5,8.5c0.7,0.3,1.4,0.6,2.2,0.8
	s1.5,0.4,2.2,0.6l4.4-7.3c0.9,0.1,1.8,0.1,2.8,0.1l3.8,7.6c1.5-0.2,3-0.6,4.5-1l0.2-8.6c0.8-0.4,1.6-0.8,2.4-1.3l7.1,4.7
	c1.2-1,2.3-2,3.4-3.2l-4.1-7.5c0.5-0.8,1-1.5,1.5-2.3l8.5,0.4c0.3-0.7,0.6-1.4,0.8-2.2c0.2-0.7,0.4-1.5,0.6-2.2l-7.2-4.4
	c0.1-0.9,0.1-1.9,0.1-2.8l7.6-3.9c-0.2-1.5-0.5-3-1-4.5l-8.5-0.2c-0.4-0.8-0.8-1.6-1.3-2.4l4.7-7.2c-0.9-1.2-2-2.3-3.1-3.4l-7.4,4.1
	c-0.7-0.5-1.5-1-2.3-1.5l0.5-8.5c-0.7-0.3-1.4-0.6-2.2-0.8c-0.7-0.2-1.5-0.4-2.2-0.6l-4.4,7.3c-0.9-0.1-1.8-0.1-2.8-0.1l-3.8-7.6
	C25.5,311.3,24,311.6,22.6,312z"/>
<path class="st0" d="M47.2,407.2c3-0.5,4.7-0.5,4.7-0.5c1.2,0,2.1-1,2.1-2.2v-3.1c0-1.2-1-2.2-2.1-2.3c0,0-2.7-0.2-4.6-0.7
	c-0.2,0-0.2,0-0.2,0c-0.2-0.1-0.4-0.5-0.6-0.9c-0.2-0.4-0.5-1.9-0.4-2.4c0,0,0,0,0.4-0.5c1.8-2.4,2.9-3.6,2.9-3.6
	c0.8-0.8,0.8-2.2,0-3l-2.3-2.2c-0.8-0.8-2.2-0.8-3.1,0c0,0-1.3,1.2-3.8,2.6c-0.6,0.3-0.6,0.3-0.6,0.3c-0.7,0-1.6-0.1-2-0.3
	c-0.4-0.2-1.6-0.7-1.7-0.8c0,0,0,0,0-0.1c-0.5-3-0.5-5.2-0.5-5.2c0-1.2-1-2.1-2.2-2.1h-3.3c-1.2,0-2.1,1-2.2,2.1c0,0,0,2.5-0.8,5.2
	c0,0.2,0,0.2,0,0.2c-0.1,0.2-0.4,0.4-0.7,0.5c-0.3,0.1-1.7,0.4-2.5,0.4c0,0,0,0-0.6-0.4c-2.5-1.4-3.8-2.6-3.8-2.6
	c-0.8-0.8-2.2-0.8-3.1,0l-2.3,2.2c-0.8,0.8-0.8,2.2,0,3c0,0,1.1,1.1,2.9,3.6c0.3,0.5,0.3,0.5,0.3,0.5c0.1,0.5,0,1.2-0.2,1.7
	c-0.2,0.4-0.8,1.8-1,1.9c0,0,0,0-0.2,0.1c-2.7,0.8-4.5,0.8-4.5,0.8c-1.2,0-2.1,1-2.1,2.2v3.1c0,1.2,1,2.1,2.1,2.2c0,0,1.6,0,4.6,0.5
	c0.1,0,0.1,0,0.1,0c0.2,0,0.4,0.4,0.6,0.9c0.2,0.5,0.6,2.1,0.5,2.6c0,0,0,0-0.4,0.5c-1.8,2.4-2.9,3.6-2.9,3.6c-0.8,0.8-0.8,2.2,0,3
	L16,420c0.8,0.8,2.2,0.8,3.1,0c0,0,1.3-1.2,3.8-2.6c0.6-0.3,0.6-0.3,0.6-0.3c0.8,0,1.7,0.1,2,0.2c0.3,0.1,1.2,0.6,1.3,0.8
	c0,0,0,0,0.1,0.2c0.8,2.7,0.8,4.4,0.8,4.4c0,1.2,1,2.1,2.2,2.1h3.3c1.2,0,2.1-1,2.2-2.1c0,0,0-1.5,0.5-4.5c0-0.2,0-0.2,0-0.2
	c0-0.2,0.4-0.4,0.9-0.6c0.4-0.1,2.1-0.6,2.8-0.5c0,0,0,0,0.6,0.3c2.5,1.4,3.8,2.6,3.8,2.6c0.8,0.8,2.2,0.8,3.1,0l2.3-2.2
	c0.8-0.8,0.8-2.2,0-3c0,0-1.1-1.1-2.9-3.6c-0.4-0.5-0.4-0.5-0.4-0.5c-0.1-0.5,0-1.3,0.2-1.8c0.2-0.4,0.7-1.7,0.8-1.7
	C47.1,407.2,47.1,407.2,47.2,407.2z M31.5,412.2c-5.2,0-9.5-4.2-9.5-9.3c0-5.1,4.2-9.3,9.5-9.3c5.2,0,9.5,4.2,9.5,9.3
	C41,408,36.7,412.2,31.5,412.2z"/>
<path class="st0" d="M27.8,543.3c1.6,0.3,3.3,0.3,5.1,0.1l4.8,4.5c1.1-0.4,2.2-0.9,3.2-1.5l-0.4-6.5c1.3-1.1,2.3-2.4,3.2-3.9
	l6.5-0.9c0.4-1.1,0.7-2.3,0.8-3.4l-5.4-3.8c-0.1-0.9-0.1-1.7-0.3-2.6c-0.2-0.8-0.4-1.6-0.7-2.3l3.3-5.6c-0.7-1-1.4-1.9-2.2-2.8
	l-6.3,1.8c-1.4-1-2.9-1.8-4.5-2.2l-2.3-6.1c-1.2-0.1-2.3-0.1-3.6,0l-2.5,6c-1.7,0.4-3.2,1.2-4.6,2.1l-6.3-2
	c-0.8,0.8-1.6,1.8-2.3,2.8l3.2,5.7c-0.7,1.5-1.1,3.2-1.2,4.9l-5.5,3.6c0.1,0.6,0.2,1.2,0.3,1.9c0.1,0.6,0.3,1.1,0.5,1.7l6.5,1
	c0.8,1.5,1.9,2.9,3.1,3.9l-0.5,6.5c1,0.6,2.1,1.1,3.2,1.6L27.8,543.3z"/>
<path class="st0" d="M3.9,478.2l8.7-1.1c0.5,0.8,1.1,1.5,1.7,2.2l-3.6,7.9c1.1,1.1,2.4,2,3.7,2.9l6.9-5.2c0.8,0.4,1.7,0.8,2.6,1.1
	l0.9,8.6c0.8,0.2,1.5,0.3,2.3,0.5s1.6,0.2,2.3,0.2l3.3-7.9c0.9-0.1,1.9-0.2,2.8-0.3l5.1,7c1.5-0.5,3-1,4.4-1.7l-1.2-8.6
	c0.8-0.5,1.5-1.1,2.3-1.7l8,3.6c1.1-1.1,2-2.4,2.9-3.7l-5.3-6.8c0.4-0.8,0.8-1.7,1.1-2.6l8.6-0.8c0.2-0.8,0.3-1.5,0.5-2.3
	s0.2-1.5,0.2-2.3l-8-3.3c0-0.9-0.2-1.9-0.3-2.8l7.1-5c-0.5-1.5-1-2.9-1.7-4.3l-8.7,1.1c-0.5-0.8-1.1-1.5-1.7-2.2l3.6-7.9
	c-1.1-1.1-2.4-2-3.7-2.9l-6.9,5.2c-0.8-0.4-1.7-0.8-2.6-1.1l-0.9-8.6c-0.8-0.2-1.5-0.3-2.3-0.5c-0.8-0.1-1.6-0.2-2.3-0.2l-3.3,7.9
	c-1,0.1-1.9,0.2-2.8,0.3l-5.1-7c-1.5,0.5-3,1-4.4,1.7l1.1,8.6c-0.8,0.5-1.5,1.1-2.3,1.7l-7.9-3.6c-1.1,1.1-2,2.4-2.9,3.7l5.3,6.8
	c-0.4,0.8-0.8,1.7-1.1,2.6l-8.6,0.8c-0.2,0.8-0.3,1.5-0.5,2.3c-0.1,0.8-0.2,1.6-0.2,2.3l8,3.3c0.1,0.9,0.2,1.9,0.3,2.8l-7.1,5
	C2.7,475.4,3.2,476.8,3.9,478.2z"/>
<path class="st0" d="M28.1,604.8c1.6,0.3,3.2,0.3,4.8,0.1l4.6,4.4c1.1-0.4,2.1-0.9,3.1-1.5l-0.4-6.4c1.2-1.1,2.2-2.4,3.1-3.8
	l6.2-0.9c0.4-1.1,0.6-2.2,0.8-3.4l-5.1-3.7c-0.1-0.8-0.1-1.7-0.3-2.5c-0.2-0.8-0.4-1.6-0.7-2.3l3.2-5.5c-0.6-1-1.3-1.9-2.1-2.8
	l-6,1.8c-1.3-1-2.8-1.7-4.3-2.2l-2.2-6c-1.1-0.1-2.2-0.1-3.4,0l-2.4,5.9c-1.6,0.4-3.1,1.2-4.4,2.1l-6-2c-0.8,0.8-1.5,1.7-2.2,2.7
	l3.1,5.6c-0.6,1.5-1,3.2-1.1,4.8l-5.2,3.6c0.1,0.6,0.2,1.2,0.3,1.8c0.1,0.6,0.3,1.1,0.4,1.6l6.2,1c0.8,1.5,1.8,2.8,3,3.9l-0.5,6.4
	c1,0.6,2,1.1,3,1.6L28.1,604.8z"/>
</svg>
